<svg width="158" height="20" fill="none" xmlns="http://www.w3.org/2000/svg"><g clip-path="url(#clip0_404_5983)"><path d="M125.61 5.26h1.811l5.967 6.759v-6.76h1.665v9.363h-1.579l-6.205-6.98v6.98h-1.664V5.26h.005zm-75.428 0h5.347c2.103 0 3.768.718 3.768 2.839 0 1.714-1.322 2.638-2.633 2.719l2.729 3.804h-2.14l-2.582-3.679h-2.754v3.679h-1.735V5.26zm5.09 4.176c1.417 0 2.315-.156 2.315-1.257 0-1.1-.898-1.407-2.316-1.407h-3.349v2.664h3.35zm22.2-4.176h1.735v3.814h5.967V5.26h1.74v9.34h-1.74v-3.92h-5.967v3.92h-1.735V5.26zm23.279 0h1.735v7.728h6.447v1.614h-8.182V5.26zm9.675 0h4.283c2.815 0 5.064 1.281 5.064 4.633 0 3.17-2.058 4.708-4.993 4.708h-4.354V5.26zm3.501 7.784c2.961 0 4.111-.945 4.111-3.12 0-2.177-1.2-3.101-4.111-3.101h-1.76v6.22h1.76zm7.683-7.784h1.775v9.34h-1.775V5.26zm-27.825 9.658c-3.173 0-5.307-2-5.307-4.98 0-2.98 2.134-4.98 5.307-4.98 3.173 0 5.307 2 5.307 4.98 0 2.98-2.134 4.98-5.307 4.98zm0-8.226c-2.2 0-3.566 1.246-3.566 3.246s1.367 3.246 3.566 3.246c2.2 0 3.566-1.246 3.566-3.246s-1.367-3.246-3.566-3.246zM45.914 11.5c-.535 1.066-1.67 1.689-3.218 1.689-2.2 0-3.566-1.246-3.566-3.246s1.367-3.247 3.566-3.247c1.549 0 2.684.619 3.218 1.689h1.872c-.616-2.096-2.507-3.417-5.09-3.417-3.173 0-5.307 2-5.307 4.98 0 2.98 2.134 4.98 5.307 4.98 2.583 0 4.474-1.322 5.09-3.418h-1.872v-.01zm106.885 3.493c-2.881 0-4.253-1.603-4.833-2.884l1.604-.734c.545 1.302 1.604 1.844 3.224 1.995 1.114.106 2.91-.231 2.991-1.291a.853.853 0 00-.333-.76c-.358-.3-.858-.431-1.745-.572-.242-.04-.505-.07-.782-.105-.5-.066-1.07-.141-1.63-.257-.897-.186-1.351-.291-1.921-.733-.702-.543-1.029-1.292-.929-2.166.187-1.588 1.796-2.623 4.47-2.573 2.083.04 3.763 1.055 4.449 2.528l-1.554.718c-.424-.945-1.518-1.668-2.9-1.713-1.524-.056-2.608.407-2.744 1.13-.051.282 0 .508.232.684.242.19.418.286 1.24.457.5.1 1.014.17 1.509.236.292.035.57.075.827.116.969.155 1.715.346 2.426.819.606.402 1.176 1.251 1.095 2.266-.086 1.06-.948 2.84-4.696 2.84zm-5.67-5.357h-5.201v1.558h3.249c-.464 1.251-1.655 1.99-3.35 1.99-2.199 0-3.566-1.246-3.566-3.246s1.367-3.246 3.566-3.246c1.549 0 2.684.618 3.219 1.688h1.871c-.615-2.096-2.512-3.417-5.09-3.417-3.173 0-5.306 2-5.306 4.98 0 2.98 2.133 4.98 5.306 4.98s5.307-2 5.307-4.98c0-.106 0-.206-.01-.307h.005zm-75.665 0h-5.2v1.558h3.248c-.464 1.251-1.655 1.99-3.35 1.99-2.2 0-3.566-1.246-3.566-3.246s1.367-3.246 3.566-3.246c1.554 0 2.684.618 3.218 1.688h1.872c-.615-2.096-2.512-3.417-5.09-3.417-3.173 0-5.301 2-5.301 4.98 0 2.98 2.133 4.98 5.301 4.98s5.307-2 5.307-4.98c0-.106 0-.206-.01-.307h.005z" fill="#000"/><path d="M19.669 13.214c-7.895 3.292-14.836 3.03-15.915.181C2.523 10.15 7.905 6.13 14.508 2.205 4.793 6.585-.978 13.32.828 17.178c1.831 3.915 10.754 3.448 20.384-.95 8.62-3.934 14.417-9.773 15.501-14.105-4.06 4.533-9.624 7.995-17.05 11.095l.006-.005z" fill="#E4002B"/><path d="M17.671 8.33c-4.409 1.638-8.076 1.9-8.954.256-.998-1.869 2.174-4.125 6.215-6.608-5.927 2.659-10.75 6.433-9.66 9.357 1.019 2.734 7.617 2.226 13.433-.532C23.588 8.49 28.82 4.57 30.403 1.119 27.825 3.23 21.939 6.737 17.67 8.33z" fill="#E4002B"/><path d="M18.458 3.637c-2.648 1-3.662.558-3.824.1-.161-.462.626-1.206 1.241-1.693.605-.483 1.206-.744 2.093-1.201-.64.09-1.982.573-3.253 1.226C11.34 3.793 10.009 5.4 10.83 6.702c.52.82 2.275 1.08 5.841-.186 2.86-1.015 6.356-3.613 7.582-5.673-1.05.718-3.662 1.99-5.796 2.794z" fill="#E4002B"/><g style="mix-blend-mode:multiply"><path d="M19.669 13.214c-7.895 3.292-14.836 3.03-15.915.181C2.523 10.15 7.905 6.13 14.508 2.205 4.793 6.585-.978 13.32.828 17.178c1.831 3.915 10.754 3.448 20.384-.95 8.62-3.934 14.417-9.773 15.501-14.105-4.06 4.533-9.624 7.995-17.05 11.095l.006-.005z" fill="url(#paint0_linear_404_5983)"/><path d="M17.671 8.33c-4.409 1.638-8.076 1.9-8.954.256-.998-1.869 2.174-4.125 6.215-6.608-5.927 2.659-10.75 6.433-9.66 9.357 1.019 2.734 7.617 2.226 13.433-.532C23.588 8.49 28.82 4.57 30.403 1.119 27.825 3.23 21.939 6.737 17.67 8.33z" fill="url(#paint1_linear_404_5983)"/><path d="M18.458 3.637c-2.648 1-3.662.558-3.824.1-.161-.462.626-1.206 1.241-1.693.605-.483 1.206-.744 2.093-1.201-.64.09-1.982.573-3.253 1.226C11.34 3.793 10.009 5.4 10.83 6.702c.52.82 2.275 1.08 5.841-.186 2.86-1.015 6.356-3.613 7.582-5.673-1.05.718-3.662 1.99-5.796 2.794z" fill="url(#paint2_linear_404_5983)"/></g></g><defs><linearGradient id="paint0_linear_404_5983" x1="11.028" y1="21.546" x2="19.313" y2="7.137" gradientUnits="userSpaceOnUse"><stop stop-color="#9E9E9F"/><stop offset=".19" stop-color="#B6B6B7"/><stop offset=".55" stop-color="#DDDDDE"/><stop offset=".83" stop-color="#F6F6F6"/><stop offset="1" stop-color="#fff"/></linearGradient><linearGradient id="paint1_linear_404_5983" x1="9.368" y1="19.888" x2="17.639" y2="5.509" gradientUnits="userSpaceOnUse"><stop stop-color="#9E9E9F"/><stop offset=".19" stop-color="#B6B6B7"/><stop offset=".55" stop-color="#DDDDDE"/><stop offset=".83" stop-color="#F6F6F6"/><stop offset="1" stop-color="#fff"/></linearGradient><linearGradient id="paint2_linear_404_5983" x1="8.344" y1="18.833" x2="16.625" y2="4.439" gradientUnits="userSpaceOnUse"><stop stop-color="#9E9E9F"/><stop offset=".19" stop-color="#B6B6B7"/><stop offset=".55" stop-color="#DDDDDE"/><stop offset=".83" stop-color="#F6F6F6"/><stop offset="1" stop-color="#fff"/></linearGradient><clipPath id="clip0_404_5983"><path fill="#fff" transform="translate(.5 .843)" d="M0 0h157v19H0z"/></clipPath></defs></svg>