<svg width="161" height="48" viewBox="0 0 161 48" fill="none" xmlns="http://www.w3.org/2000/svg">
<g clip-path="url(#clip0_767_1616)">
<path d="M40.9936 14.2523C40.9958 14.251 40.9965 14.2482 40.9953 14.2461C40.6294 13.6126 40.1004 13.0737 39.4461 12.6951L25.4021 4.56913C24.7477 4.19049 24.0176 4.00078 23.2872 4C23.2847 4 23.2827 4.00203 23.2827 4.00451V24.4923C23.2827 24.4957 23.2864 24.4979 23.2893 24.4962L40.9936 14.2523Z" fill="#F8A21D"/>
<path d="M5.57177 14.2523C5.56963 14.251 5.56685 14.2518 5.56562 14.2539C5.20112 14.8882 5 15.6167 5 16.374V32.626C5 33.3833 5.20112 34.1118 5.56562 34.7461C5.56685 34.7482 5.56963 34.749 5.57177 34.7477L23.2761 24.5038C23.279 24.5021 23.279 24.4979 23.2761 24.4962L5.57177 14.2523Z" fill="#66BB42"/>
<path d="M23.2827 4.00451C23.2827 4.00203 23.2807 4 23.2782 4C22.5479 4.00078 21.8177 4.19049 21.1634 4.56913L7.1194 12.6951C6.46502 13.0737 5.93602 13.6126 5.57018 14.2461C5.56894 14.2482 5.56968 14.251 5.57183 14.2523L23.2761 24.4962C23.2791 24.4979 23.2827 24.4957 23.2827 24.4923V4.00451Z" fill="#FFDF2B"/>
<path d="M5.57183 34.7477C5.56968 34.749 5.56894 34.7518 5.57018 34.7539C5.93602 35.3874 6.46502 35.9263 7.1194 36.3049L21.1634 44.4309C21.8177 44.8095 22.5479 44.9992 23.2782 45C23.2807 45 23.2827 44.998 23.2827 44.9955V24.5077C23.2827 24.5043 23.2791 24.5021 23.2761 24.5038L5.57183 34.7477Z" fill="#009ADC"/>
<path d="M23.2893 24.5038L40.9936 34.7477C40.9958 34.749 40.9985 34.7482 40.9998 34.7461C41.3643 34.1118 41.5654 33.3833 41.5654 32.626V16.374C41.5654 15.6167 41.3643 14.8882 40.9998 14.2539C40.9985 14.2518 40.9958 14.251 40.9936 14.2523L23.2893 24.4962C23.2864 24.4979 23.2864 24.5021 23.2893 24.5038Z" fill="#EF2615"/>
<path d="M23.2827 44.9955C23.2827 44.998 23.2847 45 23.2872 45C24.0176 44.9992 24.7477 44.8095 25.4021 44.4309L39.4461 36.3049C40.1004 35.9263 40.6294 35.3874 40.9953 34.7539C40.9965 34.7518 40.9958 34.749 40.9936 34.7477L23.2893 24.5038C23.2864 24.5021 23.2827 24.5043 23.2827 24.5077V44.9955Z" fill="#D300C4"/>
<path d="M66.6158 20.2864H71.6204C71.6232 20.2864 71.6253 20.289 71.6247 20.2918L68.6165 34.4381C68.6159 34.4409 68.618 34.4434 68.6208 34.4434H73.8094C73.8115 34.4434 73.8133 34.442 73.8137 34.4399L76.8228 20.2641C76.8232 20.2621 76.825 20.2606 76.8271 20.2606H80.8082C80.8102 20.2606 80.8121 20.2591 80.8125 20.2571L81.7627 15.7791C81.7632 15.7763 81.7611 15.7737 81.7583 15.7737H69.004C69.0024 15.7737 69.0009 15.7746 69.0001 15.7761L66.6119 20.2799C66.6103 20.2829 66.6124 20.2864 66.6158 20.2864Z" fill="black"/>
<path d="M98.3706 15.7737C98.3685 15.7737 98.3667 15.7752 98.3662 15.7772L96.1542 26.2175C95.4851 29.4408 94.4559 30.5238 92.449 30.5238C90.4934 30.5238 89.8502 29.3119 90.4677 26.5011L92.3717 17.4757C92.6033 16.4184 92.0887 15.7737 91.0081 15.7737H86.0189C86.0173 15.7737 86.0158 15.7746 86.015 15.7761L83.6011 20.2799C83.5995 20.2828 83.6017 20.2864 83.605 20.2864H86.5512C86.554 20.2864 86.5561 20.289 86.5555 20.2918L85.4245 25.6243C84.0093 32.2515 85.8362 34.7013 89.6443 34.7013C91.7477 34.7013 93.5699 33.8043 94.9323 31.9337C94.9354 31.9294 94.9419 31.9324 94.9409 31.9377C94.5896 33.8292 95.2615 34.4434 97.3893 34.4434H101.22C101.222 34.4434 101.224 34.4426 101.224 34.4411L103.355 30.4788C103.357 30.4759 103.355 30.4723 103.351 30.4723H100.482C100.48 30.4723 100.478 30.4697 100.478 30.467L103.615 15.7791C103.615 15.7763 103.613 15.7737 103.611 15.7737H98.3706Z" fill="black"/>
<path d="M114.713 15.7737H107.871C107.869 15.7737 107.868 15.7746 107.867 15.7761L105.453 20.3057C105.452 20.3087 105.454 20.3122 105.457 20.3122H114.378C117.775 20.338 118.881 21.6016 118.186 25.057C117.492 28.5124 116.051 30.2917 112.191 30.2917H111.528C111.525 30.2917 111.523 30.2892 111.523 30.2864L113.374 21.2974C113.374 21.2947 113.372 21.2921 113.369 21.2921H108.181C108.179 21.2921 108.177 21.2935 108.176 21.2956L105.733 32.7416C105.527 33.7988 106.042 34.4434 107.122 34.4434H111.265C118.238 34.4434 121.969 31.6585 123.255 25.5469C124.645 18.9713 121.814 15.7737 114.713 15.7737Z" fill="black"/>
<path d="M127.85 15.7761L125.436 20.2799C125.434 20.2828 125.436 20.2864 125.439 20.2864H128.386C128.388 20.2864 128.391 20.289 128.39 20.2918L125.972 31.5811C125.509 33.773 126.075 34.4434 128.34 34.4434H132.171C132.173 34.4434 132.174 34.4426 132.175 34.4411L134.306 30.4788C134.307 30.4759 134.305 30.4723 134.302 30.4723H131.459C131.456 30.4723 131.454 30.4697 131.454 30.467L134.591 15.7791C134.592 15.7763 134.59 15.7737 134.587 15.7737H127.853C127.852 15.7737 127.85 15.7746 127.85 15.7761Z" fill="black"/>
<path d="M152.997 17.7851C151.478 16.341 149.78 15.7737 145.38 15.7737H138.847C138.846 15.7737 138.844 15.7746 138.843 15.7761L136.429 20.2799C136.428 20.2828 136.43 20.2864 136.433 20.2864H145.072C147.413 20.2864 148.416 20.6217 149.034 21.2147C149.652 21.8594 149.935 22.8651 149.78 24.2318C149.446 27.6099 147.773 30.0854 145.072 30.0854C143.116 30.0854 141.855 28.7703 142.112 25.9853C142.266 24.0817 142.958 22.3064 143.907 21.2993C143.909 21.2965 143.907 21.2921 143.904 21.2921H138.461C138.46 21.2921 138.458 21.2928 138.457 21.294C137.738 22.3253 137.275 23.717 137.121 25.186C136.22 31.8389 139.925 34.7013 144.737 34.7013C149.6 34.7013 153.923 31.478 154.849 25.057C155.338 21.679 154.618 19.2808 152.997 17.7851Z" fill="black"/>
<path d="M57.4082 34.4434H48.3907C48.3876 34.4434 48.3855 34.4405 48.3865 34.4376L49.7383 30.4753C49.739 30.4735 49.7406 30.4723 49.7425 30.4723H56.4124C58.1879 30.498 59.1398 29.9308 59.1398 28.8993C59.1398 26.5269 50.4943 27.2746 50.4943 21.5758C50.4943 17.7077 53.4534 15.4643 58.2651 15.4901C62.4578 15.4643 65.3648 17.5774 64.6726 21.4431C64.6722 21.4452 64.6703 21.4469 64.6682 21.4469L60.0713 21.4468C60.0686 21.4468 60.0666 21.4443 60.067 21.4417C60.2956 20.1039 59.4724 19.3324 57.982 19.3324C56.4896 19.3324 55.5633 20.0286 55.5633 21.1116C55.5633 24.1029 64.2602 22.6588 64.2602 28.5382C64.2602 28.5382 64.1819 34.4434 57.4082 34.4434Z" fill="black"/>
<path d="M37.175 24.4396C37.134 23.5907 36.4363 22.9145 35.579 22.9145C34.6954 22.9145 33.979 23.6324 33.979 24.518V30.2936C33.979 30.5477 33.8437 30.7826 33.624 30.9096L23.6352 36.6864C23.4154 36.8135 23.1446 36.8133 22.925 36.686L15.2405 32.2305C14.7675 31.9563 14.7683 31.2716 15.2418 30.9984L35.2879 19.4343C36.8518 18.5321 36.8521 16.2706 35.2884 15.368L23.6411 8.64517C23.4219 8.51865 23.1521 8.51862 22.9329 8.64507L9.74165 16.2541C9.52163 16.381 9.38599 16.6161 9.38599 16.8706V32.1301C9.38599 32.384 9.521 32.6186 9.74028 32.7457L22.9231 40.39C23.1427 40.5174 23.4135 40.5175 23.6332 40.3905L36.824 32.7626C37.0437 32.6356 37.179 32.4008 37.179 32.1466L37.175 24.4396ZM12.586 27.5992V18.7246C12.586 18.4701 12.7216 18.2351 12.9417 18.1081L22.9328 12.3452C23.1521 12.2187 23.4219 12.2187 23.6411 12.3453L31.5838 16.9312C31.9452 17.1399 31.9451 17.6626 31.5836 17.8711L13.6498 28.2156C13.1766 28.4885 12.586 28.1463 12.586 27.5992Z" fill="white"/>
</g>
<defs>
<clipPath id="clip0_767_1616">
<rect width="150" height="41" fill="white" transform="translate(5 4)"/>
</clipPath>
</defs>
</svg>
